PathFileType	4	(X/Y/Z)	pose2sim_0-881.trc
DataRate	CameraRate	NumFrames	NumMarkers	Units	OrigDataRate	OrigDataStartFrame	OrigNumFrames
50	50	4	22	m	50	0	882
Frame#	Time	Hip			RHip			RKnee			RAnkle			RBigToe			RSmallToe			RHeel			LHip			LKnee			LAnkle			LBigToe			LSmallToe			LHeel			Neck			Head			Nose			RShoulder			RElbow			RWrist			LShoulder			LElbow			LWrist			
		X1	Y1	Z1	X2	Y2	Z2	X3	Y3	Z3	X4	Y4	Z4	X5	Y5	Z5	X6	Y6	Z6	X7	Y7	Z7	X8	Y8	Z8	X9	Y9	Z9	X10	Y10	Z10	X11	Y11	Z11	X12	Y12	Z12	X13	Y13	Z13	X14	Y14	Z14	X15	Y15	Z15	X16	Y16	Z16	X17	Y17	Z17	X18	Y18	Z18	X19	Y19	Z19	X20	Y20	Z20	X21	Y21	Z21	X22	Y22	Z22	
0	0.0	0.1287897876994207	0.9913943816215608	-0.007398802148528694	0.026179872427496642	0.9656438846347223	-0.005407701055923062	0.009752632647496953	0.5191666089623838	-0.06647974537360708	0.00030836052758422813	0.10019603852715635	-0.08157112997914105	0.0017333500643318157	0.04893426558339398	0.11971622933503313	-0.05215621882602824	0.0441271657938327	0.06443214530846184	-0.00016277726681971884	0.03310729331745417	-0.15674399641901895	0.2319157947682342	0.9669553965741065	-0.017174490756908533	0.23786166393175612	0.5156700423151535	-0.1098069027595179	0.23697547643660788	0.09846109547500957	-0.10898359091993615	0.2644025215732909	0.0436299451563855	0.06383817181357934	0.3127370222850139	0.04380151971349933	0.012499362970960475	0.22483236452426103	0.03827344529260184	-0.15917393571120006	0.14245037244217193	1.5721805108664566	-0.04472281941255676	0.14533850645162827	1.827470950565329	-0.01645274301021459	0.13865402147048353	1.705800725997424	0.05726840559190845	-0.01880891110606607	1.472729112899948	-0.028581277741537823	-0.07047572454025164	1.1952708450791087	-0.03412804694658291	-0.13591315237759158	0.9469135314476865	0.004409167727602379	0.31036197208879196	1.470441939515509	-0.07168932109151359	0.35330658971307005	1.1975137212725246	-0.08345981441684354	0.4019439814852545	0.9478756979995412	-0.058803959365638286
1	0.02	0.1307330442054451	0.9833832577136822	-0.007675954105965367	0.022751416676652987	0.9704932440695178	0.0008587409919850141	0.007716482054884039	0.5153579947718254	-0.06367566270300044	-0.000664031548085317	0.09292724742434497	-0.08032506151936208	-0.0068347890586553505	0.05867058097959781	0.1146871461083428	-0.05765597244140528	0.05658085222743426	0.06032440605454802	0.008333782479098115	0.043168523794747074	-0.1264342798378356	0.23900571736931792	0.9698975176690338	-0.025352132128999026	0.23872157841201622	0.5112427125233778	-0.09958209667796944	0.24223023052241419	0.0894195069994067	-0.11845271897835936	0.25756122976268003	0.041489007001117004	0.03558895453826826	0.31571917661115834	0.04221387080190171	-0.012841142229860042	0.23068603468427062	0.03479502408718127	-0.1713613949244961	0.14382349252679405	1.577777937020682	-0.04816599252412824	0.14680548239728147	1.831223365496707	-0.015405083794878665	0.1395072857282224	1.7001231042841223	0.0280045113473255	-0.02107421641661818	1.470997793018309	-0.04381819176836091	-0.07160307039332012	1.1927134470673568	-0.030174308222832194	-0.13726054931006645	0.9449983947716487	0.015575467308928736	0.31324795599618727	1.4769237872795877	-0.05948967370442413	0.3555963627258139	1.1991058529907135	-0.07941790154177408	0.4046870459240931	0.9478147879364527	-0.06985799059178535
2	0.04	0.1334490711888464	0.9852341590204196	-0.014716257862759891	0.02583744782827727	0.972280143062963	-0.007119156348545888	0.008800586702693	0.5204753012391189	-0.06437767116534085	-0.000505055948468081	0.09413058471430645	-0.08101671208320411	0.0003353196920240664	0.05390979538220534	0.11203042117123041	-0.05073934780824974	0.05460446412382174	0.057542966148323535	0.005254529283584037	0.04573872335420239	-0.133827280184501	0.23832134872655117	0.9697599168331074	-0.024654961484239728	0.23765462372306073	0.5134981785883187	-0.09832898567062959	0.24117587532916235	0.09114021370997895	-0.11723924636709784	0.26074936539123017	0.039863218845738194	0.042585320623410076	0.314392659687169	0.038286984390200104	-0.011826302781076808	0.228651683559803	0.03600949066235171	-0.1694662627037147	0.14112038417718575	1.5744510022489004	-0.04123253095422699	0.14683588326719557	1.8291861802206908	-0.015361533446233555	0.14025031347365538	1.7009400278242448	0.04066964752780757	-0.019335049554377686	1.4711572684688206	-0.031456165740784366	-0.07287102464327982	1.197394661404781	-0.02450377382846271	-0.13577066839811402	0.9501780848699795	0.013442794467777644	0.3151316557203869	1.4741439233678904	-0.0648318115684949	0.35711994999420194	1.2001678516975043	-0.08424862871183433	0.40892429558243176	0.9507105491712738	-0.06710479484475931
3	0.06	0.13042461974845668	0.9880523211438483	-0.014429735956744965	0.02623023361967551	0.9758619435823254	0.000493780532379743	0.008091374082408218	0.5187248929529712	-0.07057610400385622	0.00039721819940378907	0.09858150127434848	-0.07294616712458322	-0.0004366377470477255	0.05130860963924604	0.10646492587344634	-0.05345896651866197	0.05710007832546566	0.059360461996474795	0.0021612622789063114	0.045100626533322606	-0.13268242247990444	0.238780024695995	0.9705244965200007	-0.01861767294512831	0.24099660684745897	0.5099887197350367	-0.09931022298364536	0.24149265141271783	0.09203965981273389	-0.11083632534076927	0.25673039432012146	0.03842024896395168	0.04205429731082219	0.3145874264559045	0.039055923750225124	-0.006069484815113793	0.2324042618419549	0.031992711205120386	-0.17065546968176526	0.1441004355953537	1.5750930695528687	-0.04141953174637144	0.14959662711527508	1.8305211499911729	-0.015605896830101686	0.13983814852500087	1.7020451393174323	0.03431748319568722	-0.019877035682955173	1.4716381066150825	-0.037096345299205274	-0.07358015928186232	1.1945949633646338	-0.02984682012271958	-0.13680282476703876	0.9442113543064165	0.008554650243297705	0.31547727774163636	1.4747253641251814	-0.059348080543720004	0.35444593208480735	1.2003257149445812	-0.08602355637208178	0.40637276835308306	0.9504025743422597	-0.06936084432197942
